<svg width="88" height="79" viewBox="0 0 88 79" fill="none" xmlns="http://www.w3.org/2000/svg">
<path d="M81.5194 52.5419L82.5263 48.4486C83.154 45.891 83.49 43.5218 83.5505 41.2042C83.7275 37.5798 83.4773 32.1396 81.2999 26.1631C79.3672 20.7798 76.0374 15.5746 71.9157 11.484C67.7893 7.45041 62.5063 4.17039 57.0641 2.2744C50.9754 0.122364 45.4503 -0.12948 41.8873 0.0449523C37.865 0.147261 34.5559 0.971952 32 1.69346L33.9245 5.91385C35.9114 5.3765 38.7181 4.68349 42.1248 4.61676C45.3065 4.46285 50.1787 4.69861 55.5089 6.5891C60.3432 8.27318 64.8851 11.0853 68.6175 14.7097C72.3474 18.4338 75.2003 22.9077 76.9216 27.6983C78.8307 32.9276 79.0628 37.729 78.9138 40.856C78.8813 42.4022 78.6917 43.7411 78.5517 44.62L77.5474 50.8867L70.7244 48.0426L73.1945 66L88 55.2435L81.5194 52.5419Z" fill="white"/>
<path d="M44.9761 74.329C41.8384 74.4821 37.0063 74.2453 31.726 72.335C26.9366 70.6282 22.4399 67.7834 18.7441 64.115C15.0538 60.3493 12.229 55.8221 10.5238 50.9716C8.63079 45.6701 8.40278 40.8035 8.5512 37.64C8.55836 37.4005 8.57624 37.1754 8.59681 36.9495L8.9679 29.799L17.1051 33.1713L14.6594 15L0 25.8846L5.26042 28.1253L4.52451 32.0936C4.1865 33.9229 4.00051 35.627 3.95848 37.3041C3.78322 40.9716 4.03091 46.4766 6.18681 52.5243C8.09949 57.9708 11.3964 63.2371 15.4784 67.3782C19.5649 71.4617 24.7968 74.7808 30.1833 76.6991C36.212 78.8768 41.6862 79.1298 45.2103 78.9551C49.1929 78.8516 52.4694 78.0171 55 77.287L53.0927 73.0145C51.1255 73.561 48.348 74.2615 44.9761 74.329Z" fill="white"/>
</svg>
